<svg height='300px' width='300px'  fill="#000000" xmlns="http://www.w3.org/2000/svg" xmlns:xlink="http://www.w3.org/1999/xlink" version="1.1" x="0px" y="0px" viewBox="0 0 100 100" style="enable-background:new 0 0 100 100;" xml:space="preserve"><path d="M75.8,5H24.2C13.6,5,5,13.6,5,24.2v51.6C5,86.4,13.6,95,24.2,95h51.6C86.4,95,95,86.4,95,75.8V24.2C95,13.6,86.4,5,75.8,5z   M10,75.8v-3.2l29.6-29.5l3.6,3.6L10.5,79.3C10.2,78.2,10,77,10,75.8z M10,65.6v-7.2L32.4,36l3.6,3.6L10,65.6z M10,51.3v-7.1  l15.3-15.3l3.6,3.6L10,51.3z M10,37.1v-7.2l8.1-8.1l3.6,3.6L10,37.1z M12.6,16.1l2.1,2.1l-4.5,4.5C10.3,20.2,11.2,18,12.6,16.1z   M12.7,84.1l33.9-33.9l3.6,3.6L16.4,87.7C15,86.7,13.7,85.5,12.7,84.1z M21.4,89.7l32.4-32.4l3.6,3.6L28.5,89.7l0.3,0.3h-4.6  C23.2,90,22.3,89.9,21.4,89.7z M83.9,87.4c-1.6,1.1-3.5,1.9-5.5,2.3l3.9-3.9L83.9,87.4z M71.3,89.7l0.3,0.3h-7.8l11.3-11.3l3.6,3.6  L71.3,89.7z M57.3,90h-7.7L68,71.6l3.6,3.6L57,89.7L57.3,90z M43.1,90h-7.8l25.6-25.6l3.6,3.6L42.8,89.7L43.1,90z M90,75.8  c0,3-1,5.8-2.6,8.1L16.1,12.6c2.3-1.6,5.1-2.6,8.1-2.6h51.6C83.6,10,90,16.4,90,24.2V75.8z"></path></svg>