<svg height='300px' width='300px'  fill="#000000" xmlns="http://www.w3.org/2000/svg" xmlns:xlink="http://www.w3.org/1999/xlink" viewBox="0 0 24 24" version="1.1" x="0px" y="0px"><title>photo</title><desc>Created with Sketch.</desc><g stroke="none" stroke-width="1" fill="none" fill-rule="evenodd"><path d="M5,4 C4.44771525,4 4,4.44771525 4,5 L4,19 C4,19.5522847 4.44771525,20 5,20 L19,20 C19.5522847,20 20,19.5522847 20,19 L20,5 C20,4.44771525 19.5522847,4 19,4 L5,4 Z M5,2 L19,2 C20.6568542,2 22,3.34314575 22,5 L22,19 C22,20.6568542 20.6568542,22 19,22 L5,22 C3.34314575,22 2,20.6568542 2,19 L2,5 C2,3.34314575 3.34314575,2 5,2 Z" fill="#000000" fill-rule="nonzero"></path><path d="M9.10819419,13.5224077 L6.8,16.6 C6.46862915,17.0418278 5.8418278,17.1313708 5.4,16.8 C4.9581722,16.4686292 4.86862915,15.8418278 5.2,15.4 L8.2,11.4 C8.56512961,10.9131605 9.27679741,10.8625838 9.70710678,11.2928932 L13.7071068,15.2928932 C14.0976311,15.6834175 14.0976311,16.3165825 13.7071068,16.7071068 C13.3165825,17.0976311 12.6834175,17.0976311 12.2928932,16.7071068 L9.10819419,13.5224077 Z" fill="#000000" fill-rule="nonzero"></path><path d="M11.7071068,14.7071068 C11.3165825,15.0976311 10.6834175,15.0976311 10.2928932,14.7071068 C9.90236893,14.3165825 9.90236893,13.6834175 10.2928932,13.2928932 L12.2928932,11.2928932 C12.6834175,10.9023689 13.3165825,10.9023689 13.7071068,11.2928932 L18.7071068,16.2928932 C19.0976311,16.6834175 19.0976311,17.3165825 18.7071068,17.7071068 C18.3165825,18.0976311 17.6834175,18.0976311 17.2928932,17.7071068 L13,13.4142136 L11.7071068,14.7071068 Z" fill="#000000" fill-rule="nonzero"></path><circle fill="#000000" fill-rule="nonzero" cx="16" cy="8" r="2"></circle></g></svg>