<svg height='300px' width='300px'  fill="#000000" xmlns="http://www.w3.org/2000/svg" xmlns:xlink="http://www.w3.org/1999/xlink" version="1.1" x="0px" y="0px" viewBox="0 0 64 64" style="enable-background:new 0 0 64 64;" xml:space="preserve"><path d="M16.7,10.4l8.4-5.3l-10,3C15.9,8.7,16.4,9.5,16.7,10.4z"></path><path d="M50,3H32.3l-15.8,9.8c-0.2,0.1-0.5,0.4-1,0C15.2,12.7,15,12.4,15,12c0-1.3-0.8-2.4-2-2.8V60c0,0.5,0.5,1,1,1h36  c0.5,0,1-0.5,1-1V4C51,3.5,50.5,3,50,3z M38,5h2c0.5,0,1,0.5,1,1s-0.5,1-1,1h-2c-0.5,0-1-0.5-1-1S37.5,5,38,5z M22,11h20  c0.5,0,1,0.5,1,1s-0.5,1-1,1H22c-0.5,0-1-0.5-1-1S21.5,11,22,11z M18,59h-1.5c-0.8,0-1.5-0.6-1.5-1.5V56c0-0.5,0.5-1,1-1s1,0.5,1,1  v1h1c0.5,0,1,0.5,1,1S18.5,59,18,59z M48,53H16c-0.5,0-1-0.5-1-1s0.5-1,1-1h32c0.5,0,1,0.5,1,1S48.5,53,48,53z M48,45H16  c-0.5,0-1-0.5-1-1s0.5-1,1-1h32c0.5,0,1,0.5,1,1S48.5,45,48,45z M48,37H16c-0.5,0-1-0.5-1-1s0.5-1,1-1h32c0.5,0,1,0.5,1,1  S48.5,37,48,37z M48,29H16c-0.5,0-1-0.5-1-1s0.5-1,1-1h32c0.5,0,1,0.5,1,1S48.5,29,48,29z M48,21H16c-0.5,0-1-0.5-1-1s0.5-1,1-1h32  c0.5,0,1,0.5,1,1S48.5,21,48,21z M49,8c0,0.5-0.5,1-1,1s-1-0.5-1-1V7h-3c-0.5,0-1-0.5-1-1s0.5-1,1-1h3.2c1,0,1.8,0.8,1.8,1.8V8z"></path></svg>