<svg height='300px' width='300px'  fill="#FFFFFF" xmlns="http://www.w3.org/2000/svg" xmlns:xlink="http://www.w3.org/1999/xlink" version="1.1" x="0px" y="0px" viewBox="0 0 48 48" enable-background="new 0 0 48 48" xml:space="preserve"><g><path d="M45.5,0.5H2.5c-1.1,0-2,0.9-2,2v10.1h47V2.5C47.5,1.4,46.6,0.5,45.5,0.5z M9.1,8.5L9.1,8.5c-1.1,0-2-0.9-2-2s0.9-2,2-2   s2,0.9,2,2S10.2,8.5,9.1,8.5z M18.7,8.5L18.7,8.5c-1.1,0-2-0.9-2-2s0.9-2,2-2s2,0.9,2,2S19.7,8.5,18.7,8.5z"></path><path d="M0.5,16.5v29.1c0,1.1,0.9,2,2,2h43.1c1.1,0,2-0.9,2-2V16.5H0.5z M19.6,28.5l-8.6,3.5l8.6,3.6v2L8.7,33v-1.9l10.9-4.6V28.5z    M22.4,40.5h-1.6l4.8-17h1.6L22.4,40.5z M39.3,33l-10.9,4.6v-2l8.6-3.6l-8.6-3.5v-2l10.9,4.6V33z"></path></g></svg>