<svg height='300px' width='300px'  fill="#000000" xmlns="http://www.w3.org/2000/svg" xmlns:xlink="http://www.w3.org/1999/xlink" version="1.1" x="0px" y="0px" viewBox="0 0 64 64" style="enable-background:new 0 0 64 64;" xml:space="preserve"><g><path d="M49.3,24.8L45,28.9l5.8,5.7c0.4,0.4,0.6,0.9,0.6,1.4s-0.2,1-0.6,1.4L45,42.9c0,0,4.3,4.1,4.3,4.1l11.7-11.1L49.3,24.8z    M50.3,30.7L49,29.5c0,0-0.8,1.1-1.7,0.3c-0.4-0.4-0.4-1,0-1.4l0.7-0.7c0.5-0.5,1.4-0.5,1.9,0l1.8,1.7c0.4,0.4,0.5,1.1,0,1.4   C51.1,31.2,50.5,30.9,50.3,30.7z"></path><path d="M19,29.1c0,0-4.3-4-4.3-4.1c0,0.1-11.7,11.1-11.7,11.1l11.6,11l4.3-4.1l-5.8-5.7c-0.4-0.4-0.6-0.9-0.6-1.4s0.2-1,0.6-1.4   L19,29.1z M8.7,37.3c0.4,0.4,0.4,1,0,1.4c-0.7,0.6-1.2,0.2-1.4,0l-1.7-1.6C5,36.5,5,35.6,5.6,35l1.7-1.7c0.4-0.4,1-0.4,1.4,0   c0.4,0.4,0.4,1,0,1.4L7.4,36L8.7,37.3z"></path><polygon points="40.5,15 21.7,49 27.5,49 46.4,15  "></polygon></g></svg>