<svg height='300px' width='300px'  fill="#000000" xmlns="http://www.w3.org/2000/svg" viewBox="0 0 32 32" x="0px" y="0px"><title>Png</title><g><path d="M24.63,31H7.38A3.37,3.37,0,0,1,4,27.63V4.38A3.38,3.38,0,0,1,7.38,1H22.5a1,1,0,0,1,.66.25l4.5,4A1,1,0,0,1,28,6V27.63A3.37,3.37,0,0,1,24.63,31ZM7.38,3A1.38,1.38,0,0,0,6,4.38V27.63A1.38,1.38,0,0,0,7.38,29H24.63A1.38,1.38,0,0,0,26,27.63V6.45L22.12,3Z"></path><path d="M27,21.44H5a1,1,0,0,1,0-2H27a1,1,0,0,1,0,2Z"></path><path d="M9.19,27.94a.41.41,0,0,1-.3-.12.42.42,0,0,1-.13-.3V23.31a.43.43,0,0,1,.13-.3.41.41,0,0,1,.3-.12h2.1a1.69,1.69,0,0,1,0,3.37H9.61v1.26a.38.38,0,0,1-.13.3A.4.4,0,0,1,9.19,27.94Zm.42-2.53h1.68a.82.82,0,0,0,.84-.84.81.81,0,0,0-.24-.59.82.82,0,0,0-.6-.25H9.61Z"></path><path d="M14.15,27.94a.41.41,0,0,1-.3-.12.38.38,0,0,1-.13-.3V23.31a.43.43,0,0,1,.75-.27l2.83,3.34V23.31a.39.39,0,0,1,.13-.3.4.4,0,0,1,.29-.12A.41.41,0,0,1,18,23a.42.42,0,0,1,.12.3v4.21a.4.4,0,0,1-.27.4l-.15,0a.41.41,0,0,1-.32-.15l-2.83-3.33v3.06a.42.42,0,0,1-.13.3A.4.4,0,0,1,14.15,27.94Z"></path><path d="M19.63,27.2a2.53,2.53,0,0,1,3.58-3.57.41.41,0,0,1,.12.3.4.4,0,0,1-.12.29.41.41,0,0,1-.3.13.38.38,0,0,1-.3-.13,1.65,1.65,0,0,0-1.19-.49,1.66,1.66,0,0,0-1.19.49,1.69,1.69,0,0,0,1.19,2.88,1.67,1.67,0,0,0,1.07-.38v-.88H21.21a.42.42,0,0,1-.3-.13.41.41,0,0,1-.12-.3.4.4,0,0,1,.12-.29.41.41,0,0,1,.3-.12h1.7a.44.44,0,0,1,.3.12.4.4,0,0,1,.12.29V26.9a.41.41,0,0,1-.12.3,2.53,2.53,0,0,1-3.58,0Z"></path><path d="M18.5,17h-5A4.51,4.51,0,0,1,9,12.5v-1A4.51,4.51,0,0,1,13.5,7h5A4.51,4.51,0,0,1,23,11.5v1A4.51,4.51,0,0,1,18.5,17Zm-5-8A2.5,2.5,0,0,0,11,11.5v1A2.5,2.5,0,0,0,13.5,15h5A2.5,2.5,0,0,0,21,12.5v-1A2.5,2.5,0,0,0,18.5,9Z"></path></g></svg>